# xmcd
#
# Track frame offsets:
#	150
#	10452
#	17420
#	31800
#	41620
#	45364
#	61250
#	117455
#	122540
#	136910
#
# Disc length: 2556 seconds
#
# Revision: 0
# Processed by: cddbd v1.5.1PL0 Copyright (c) Steve Scherf et al.
# Submitted via: dBpowerAMP V4.0
#
DISCID=7609fa0a
DTITLE=James Brown - Greatest Hits
DYEAR=1997
DGENRE=R&B
TTITLE0=Papa's Got A Brand New Bag
TTITLE1=Give It Up Or Turn It Loose
TTITLE2=Get On The Good Foot
TTITLE3=Get Up Offa That Thang
TTITLE4=Hot Pants
TTITLE5=I Got The Feelin'
TTITLE6=It's A Man's Man's World
TTITLE7=Cold Sweat
TTITLE8=I Got You (I feel Good)
TTITLE9=Super Bad
EXTD=Distributed by MUSIC TRAX, INC.\n3595 Canton Road\nSuite A9-122\nMarietta, GA 30066\nR&B
EXTT0=
EXTT1=
EXTT2=
EXTT3=
EXTT4=
EXTT5=
EXTT6=
EXTT7=
EXTT8=
EXTT9=
PLAYORDER=
